<svg id="visual" viewBox="0 0 900 600" width="900" height="600" xmlns="http://www.w3.org/2000/svg" xmlns:xlink="http://www.w3.org/1999/xlink" version="1.1"><rect x="0" y="0" width="900" height="600" fill="#f4f4f5"></rect><path d="M0 270L8.3 270.5C16.7 271 33.3 272 50 282.2C66.7 292.3 83.3 311.7 100 315.7C116.7 319.7 133.3 308.3 150 305C166.7 301.7 183.3 306.3 200 309.5C216.7 312.7 233.3 314.3 250 318.7C266.7 323 283.3 330 300 322.3C316.7 314.7 333.3 292.3 350 283C366.7 273.7 383.3 277.3 400 280.7C416.7 284 433.3 287 450 286C466.7 285 483.3 280 500 288C516.7 296 533.3 317 550 329.2C566.7 341.3 583.3 344.7 600 344C616.7 343.3 633.3 338.7 650 332.7C666.7 326.7 683.3 319.3 700 309.7C716.7 300 733.3 288 750 288.8C766.7 289.7 783.3 303.3 800 304.7C816.7 306 833.3 295 850 289C866.7 283 883.3 282 891.7 281.5L900 281L900 601L891.7 601C883.3 601 866.7 601 850 601C833.3 601 816.7 601 800 601C783.3 601 766.7 601 750 601C733.3 601 716.7 601 700 601C683.3 601 666.7 601 650 601C633.3 601 616.7 601 600 601C583.3 601 566.7 601 550 601C533.3 601 516.7 601 500 601C483.3 601 466.7 601 450 601C433.3 601 416.7 601 400 601C383.3 601 366.7 601 350 601C333.3 601 316.7 601 300 601C283.3 601 266.7 601 250 601C233.3 601 216.7 601 200 601C183.3 601 166.7 601 150 601C133.3 601 116.7 601 100 601C83.3 601 66.7 601 50 601C33.3 601 16.7 601 8.3 601L0 601Z" fill="#34d399"></path><path d="M0 364L8.3 359.8C16.7 355.7 33.3 347.3 50 336.5C66.7 325.7 83.3 312.3 100 318.7C116.7 325 133.3 351 150 351C166.7 351 183.3 325 200 319.3C216.7 313.7 233.3 328.3 250 336.3C266.7 344.3 283.3 345.7 300 340.8C316.7 336 333.3 325 350 321.8C366.7 318.7 383.3 323.3 400 327.7C416.7 332 433.3 336 450 337.2C466.7 338.3 483.3 336.7 500 330.3C516.7 324 533.3 313 550 320.3C566.7 327.7 583.3 353.3 600 366.5C616.7 379.7 633.3 380.3 650 374C666.7 367.7 683.3 354.3 700 350.7C716.7 347 733.3 353 750 346.5C766.7 340 783.3 321 800 318.8C816.7 316.7 833.3 331.3 850 336.8C866.7 342.3 883.3 338.7 891.7 336.8L900 335L900 601L891.7 601C883.3 601 866.7 601 850 601C833.3 601 816.7 601 800 601C783.3 601 766.7 601 750 601C733.3 601 716.7 601 700 601C683.3 601 666.7 601 650 601C633.3 601 616.7 601 600 601C583.3 601 566.7 601 550 601C533.3 601 516.7 601 500 601C483.3 601 466.7 601 450 601C433.3 601 416.7 601 400 601C383.3 601 366.7 601 350 601C333.3 601 316.7 601 300 601C283.3 601 266.7 601 250 601C233.3 601 216.7 601 200 601C183.3 601 166.7 601 150 601C133.3 601 116.7 601 100 601C83.3 601 66.7 601 50 601C33.3 601 16.7 601 8.3 601L0 601Z" fill="#69c76e"></path><path d="M0 410L8.3 408.3C16.7 406.7 33.3 403.3 50 402.7C66.7 402 83.3 404 100 399.3C116.7 394.7 133.3 383.3 150 375.8C166.7 368.3 183.3 364.7 200 368.7C216.7 372.7 233.3 384.3 250 390C266.7 395.7 283.3 395.3 300 395.7C316.7 396 333.3 397 350 388.8C366.7 380.7 383.3 363.3 400 354C416.7 344.7 433.3 343.3 450 355.2C466.7 367 483.3 392 500 397.2C516.7 402.3 533.3 387.7 550 377.7C566.7 367.7 583.3 362.3 600 358.3C616.7 354.3 633.3 351.7 650 353.5C666.7 355.3 683.3 361.7 700 363.5C716.7 365.3 733.3 362.7 750 370C766.7 377.3 783.3 394.7 800 401C816.7 407.3 833.3 402.7 850 395.2C866.7 387.7 883.3 377.3 891.7 372.2L900 367L900 601L891.7 601C883.3 601 866.7 601 850 601C833.3 601 816.7 601 800 601C783.3 601 766.7 601 750 601C733.3 601 716.7 601 700 601C683.3 601 666.7 601 650 601C633.3 601 616.7 601 600 601C583.3 601 566.7 601 550 601C533.3 601 516.7 601 500 601C483.3 601 466.7 601 450 601C433.3 601 416.7 601 400 601C383.3 601 366.7 601 350 601C333.3 601 316.7 601 300 601C283.3 601 266.7 601 250 601C233.3 601 216.7 601 200 601C183.3 601 166.7 601 150 601C133.3 601 116.7 601 100 601C83.3 601 66.7 601 50 601C33.3 601 16.7 601 8.3 601L0 601Z" fill="#8eb946"></path><path d="M0 440L8.3 440.8C16.7 441.7 33.3 443.3 50 441.3C66.7 439.3 83.3 433.7 100 428.5C116.7 423.3 133.3 418.7 150 421.3C166.7 424 183.3 434 200 439.8C216.7 445.7 233.3 447.3 250 438.2C266.7 429 283.3 409 300 409.7C316.7 410.3 333.3 431.7 350 438C366.7 444.3 383.3 435.7 400 431C416.7 426.3 433.3 425.7 450 417.5C466.7 409.3 483.3 393.7 500 389.5C516.7 385.3 533.3 392.7 550 402.2C566.7 411.7 583.3 423.3 600 428.2C616.7 433 633.3 431 650 425.5C666.7 420 683.3 411 700 406.3C716.7 401.7 733.3 401.3 750 408C766.7 414.7 783.3 428.3 800 437C816.7 445.7 833.3 449.3 850 439.2C866.7 429 883.3 405 891.7 393L900 381L900 601L891.7 601C883.3 601 866.7 601 850 601C833.3 601 816.7 601 800 601C783.3 601 766.7 601 750 601C733.3 601 716.7 601 700 601C683.3 601 666.7 601 650 601C633.3 601 616.7 601 600 601C583.3 601 566.7 601 550 601C533.3 601 516.7 601 500 601C483.3 601 466.7 601 450 601C433.3 601 416.7 601 400 601C383.3 601 366.7 601 350 601C333.3 601 316.7 601 300 601C283.3 601 266.7 601 250 601C233.3 601 216.7 601 200 601C183.3 601 166.7 601 150 601C133.3 601 116.7 601 100 601C83.3 601 66.7 601 50 601C33.3 601 16.7 601 8.3 601L0 601Z" fill="#ada825"></path><path d="M0 446L8.3 452.7C16.7 459.3 33.3 472.7 50 479.3C66.7 486 83.3 486 100 484C116.7 482 133.3 478 150 472.5C166.7 467 183.3 460 200 458C216.7 456 233.3 459 250 455.7C266.7 452.3 283.3 442.7 300 444.5C316.7 446.3 333.3 459.7 350 464.8C366.7 470 383.3 467 400 466.3C416.7 465.7 433.3 467.3 450 464.7C466.7 462 483.3 455 500 447.2C516.7 439.3 533.3 430.7 550 436.2C566.7 441.7 583.3 461.3 600 469.8C616.7 478.3 633.3 475.7 650 473C666.7 470.3 683.3 467.7 700 462.2C716.7 456.7 733.3 448.3 750 443.3C766.7 438.3 783.3 436.7 800 437.2C816.7 437.7 833.3 440.3 850 444.2C866.7 448 883.3 453 891.7 455.5L900 458L900 601L891.7 601C883.3 601 866.7 601 850 601C833.3 601 816.7 601 800 601C783.3 601 766.7 601 750 601C733.3 601 716.7 601 700 601C683.3 601 666.7 601 650 601C633.3 601 616.7 601 600 601C583.3 601 566.7 601 550 601C533.3 601 516.7 601 500 601C483.3 601 466.7 601 450 601C433.3 601 416.7 601 400 601C383.3 601 366.7 601 350 601C333.3 601 316.7 601 300 601C283.3 601 266.7 601 250 601C233.3 601 216.7 601 200 601C183.3 601 166.7 601 150 601C133.3 601 116.7 601 100 601C83.3 601 66.7 601 50 601C33.3 601 16.7 601 8.3 601L0 601Z" fill="#c89315"></path><path d="M0 475L8.3 471.8C16.7 468.7 33.3 462.3 50 469.5C66.7 476.7 83.3 497.3 100 500.5C116.7 503.7 133.3 489.3 150 485C166.7 480.7 183.3 486.3 200 484.5C216.7 482.7 233.3 473.3 250 470.8C266.7 468.3 283.3 472.7 300 473.7C316.7 474.7 333.3 472.3 350 469C366.7 465.7 383.3 461.3 400 460.2C416.7 459 433.3 461 450 462.3C466.7 463.7 483.3 464.3 500 468.2C516.7 472 533.3 479 550 480.3C566.7 481.7 583.3 477.3 600 474.8C616.7 472.3 633.3 471.7 650 478.2C666.7 484.7 683.3 498.3 700 496.5C716.7 494.7 733.3 477.3 750 470.2C766.7 463 783.3 466 800 468.3C816.7 470.7 833.3 472.3 850 471.5C866.7 470.7 883.3 467.3 891.7 465.7L900 464L900 601L891.7 601C883.3 601 866.7 601 850 601C833.3 601 816.7 601 800 601C783.3 601 766.7 601 750 601C733.3 601 716.7 601 700 601C683.3 601 666.7 601 650 601C633.3 601 616.7 601 600 601C583.3 601 566.7 601 550 601C533.3 601 516.7 601 500 601C483.3 601 466.7 601 450 601C433.3 601 416.7 601 400 601C383.3 601 366.7 601 350 601C333.3 601 316.7 601 300 601C283.3 601 266.7 601 250 601C233.3 601 216.7 601 200 601C183.3 601 166.7 601 150 601C133.3 601 116.7 601 100 601C83.3 601 66.7 601 50 601C33.3 601 16.7 601 8.3 601L0 601Z" fill="#df7a24"></path><path d="M0 542L8.3 543C16.7 544 33.3 546 50 542.7C66.7 539.3 83.3 530.7 100 531.3C116.7 532 133.3 542 150 541C166.7 540 183.3 528 200 526.5C216.7 525 233.3 534 250 539.5C266.7 545 283.3 547 300 542.2C316.7 537.3 333.3 525.7 350 525.2C366.7 524.7 383.3 535.3 400 537.3C416.7 539.3 433.3 532.7 450 529.3C466.7 526 483.3 526 500 527.2C516.7 528.3 533.3 530.7 550 526.8C566.7 523 583.3 513 600 511.5C616.7 510 633.3 517 650 519.5C666.7 522 683.3 520 700 522C716.7 524 733.3 530 750 533.8C766.7 537.7 783.3 539.3 800 534.5C816.7 529.7 833.3 518.3 850 518.8C866.7 519.3 883.3 531.7 891.7 537.8L900 544L900 601L891.7 601C883.3 601 866.7 601 850 601C833.3 601 816.7 601 800 601C783.3 601 766.7 601 750 601C733.3 601 716.7 601 700 601C683.3 601 666.7 601 650 601C633.3 601 616.7 601 600 601C583.3 601 566.7 601 550 601C533.3 601 516.7 601 500 601C483.3 601 466.7 601 450 601C433.3 601 416.7 601 400 601C383.3 601 366.7 601 350 601C333.3 601 316.7 601 300 601C283.3 601 266.7 601 250 601C233.3 601 216.7 601 200 601C183.3 601 166.7 601 150 601C133.3 601 116.7 601 100 601C83.3 601 66.7 601 50 601C33.3 601 16.7 601 8.3 601L0 601Z" fill="#ef5e3e"></path><path d="M0 570L8.3 568.8C16.7 567.7 33.3 565.3 50 564.3C66.7 563.3 83.3 563.7 100 563.8C116.7 564 133.3 564 150 567.7C166.7 571.3 183.3 578.7 200 581.8C216.7 585 233.3 584 250 579.2C266.7 574.3 283.3 565.7 300 558.3C316.7 551 333.3 545 350 546.2C366.7 547.3 383.3 555.7 400 560.7C416.7 565.7 433.3 567.3 450 569.7C466.7 572 483.3 575 500 571.3C516.7 567.7 533.3 557.3 550 555.7C566.7 554 583.3 561 600 559.7C616.7 558.3 633.3 548.7 650 547.5C666.7 546.3 683.3 553.7 700 553C716.7 552.3 733.3 543.7 750 544.2C766.7 544.7 783.3 554.3 800 554.5C816.7 554.7 833.3 545.3 850 542.7C866.7 540 883.3 544 891.7 546L900 548L900 601L891.7 601C883.3 601 866.7 601 850 601C833.3 601 816.7 601 800 601C783.3 601 766.7 601 750 601C733.3 601 716.7 601 700 601C683.3 601 666.7 601 650 601C633.3 601 616.7 601 600 601C583.3 601 566.7 601 550 601C533.3 601 516.7 601 500 601C483.3 601 466.7 601 450 601C433.3 601 416.7 601 400 601C383.3 601 366.7 601 350 601C333.3 601 316.7 601 300 601C283.3 601 266.7 601 250 601C233.3 601 216.7 601 200 601C183.3 601 166.7 601 150 601C133.3 601 116.7 601 100 601C83.3 601 66.7 601 50 601C33.3 601 16.7 601 8.3 601L0 601Z" fill="#f43f5e"></path></svg>